<svg viewBox="0 0 16 16" width="16" height="16" xmlns="http://www.w3.org/2000/svg">
  <g transform="translate(4)" fill="#000" fill-rule="evenodd">
    <circle cx="3.639" cy="13.991" r="1.756"/>
    <path d="M3.578 10.731c-.107.002-.47-.071-.485-1.05L3.09 7.11l-.852-2.519a.17.17 0 01-.01-.059v-.702c0-.082.054-.155.133-.178a.18.18 0 01.205.08l.581.968.522-3.311a.227.227 0 01.326-.17.331.331 0 01.05-.018L5.508.78a.288.288 0 01.373.218l.08.491a.286.286 0 01-.126.28l-1.199.814-.061.625-.001 5.068c-.004.923-.066 1.077-.178 1.293a1.12 1.12 0 00-.101.234c-.106.346-.225.59-.364.742a.488.488 0 01-.354.186z"
          fill-rule="nonzero"/>
  </g>
</svg>
